<svg width="54" height="38" viewBox="0 0 54 38" fill="none" xmlns="http://www.w3.org/2000/svg">
<path d="M2 10.5C1.17157 10.5 0.5 11.1716 0.5 12C0.5 12.8284 1.17157 13.5 2 13.5L2 10.5ZM30.0607 13.0607C30.6464 12.4749 30.6464 11.5251 30.0607 10.9393L20.5147 1.3934C19.9289 0.80761 18.9792 0.80761 18.3934 1.3934C17.8076 1.97918 17.8076 2.92893 18.3934 3.51472L26.8787 12L18.3934 20.4853C17.8076 21.0711 17.8076 22.0208 18.3934 22.6066C18.9792 23.1924 19.9289 23.1924 20.5147 22.6066L30.0607 13.0607ZM2 13.5L29 13.5L29 10.5L2 10.5L2 13.5Z" fill="#9E9E9E"/>
<path d="M52 27.5C52.8284 27.5 53.5 26.8284 53.5 26C53.5 25.1716 52.8284 24.5 52 24.5V27.5ZM23.9393 24.9393C23.3536 25.5251 23.3536 26.4749 23.9393 27.0607L33.4853 36.6066C34.0711 37.1924 35.0208 37.1924 35.6066 36.6066C36.1924 36.0208 36.1924 35.0711 35.6066 34.4853L27.1213 26L35.6066 17.5147C36.1924 16.9289 36.1924 15.9792 35.6066 15.3934C35.0208 14.8076 34.0711 14.8076 33.4853 15.3934L23.9393 24.9393ZM52 24.5L25 24.5V27.5L52 27.5V24.5Z" fill="#9E9E9E"/>
</svg>
