<svg width="45" height="45" viewBox="0 0 45 45" fill="none" xmlns="http://www.w3.org/2000/svg">
<path d="M29.0625 26.25H27.5813L27.0563 25.7437C28.8938 23.6063 30 20.8313 30 17.8125C30 11.0813 24.5438 5.625 17.8125 5.625C11.0813 5.625 5.625 11.0813 5.625 17.8125C5.625 24.5438 11.0813 30 17.8125 30C20.8313 30 23.6063 28.8938 25.7437 27.0563L26.25 27.5813V29.0625L35.625 38.4188L38.4188 35.625L29.0625 26.25ZM17.8125 26.25C13.1438 26.25 9.375 22.4813 9.375 17.8125C9.375 13.1438 13.1438 9.375 17.8125 9.375C22.4813 9.375 26.25 13.1438 26.25 17.8125C26.25 22.4813 22.4813 26.25 17.8125 26.25Z" fill="#4BB1E5"/>
</svg>
