<svg width="35" height="34" viewBox="0 0 35 34" fill="none" xmlns="http://www.w3.org/2000/svg">
<g filter="url(#filter0_d_85_280)">
<path d="M14.6501 9.28334L7.20011 1.83334C6.55011 1.18334 5.50011 1.18334 4.85011 1.83334C4.20011 2.48334 4.20011 3.53334 4.85011 4.18334L12.2834 11.6167L14.6501 9.28334ZM22.5834 2.08334L24.5668 4.06667L4.83345 23.8C4.18345 24.45 4.18345 25.5 4.83345 26.15C5.48345 26.8 6.53345 26.8 7.18345 26.15L26.9334 6.43334L28.9168 8.41667C29.4334 8.93334 30.3334 8.56667 30.3334 7.81667V1.50001C30.3334 1.03334 29.9668 0.666672 29.5001 0.666672H23.1834C22.4334 0.666672 22.0668 1.56667 22.5834 2.08334V2.08334ZM21.7168 16.35L19.3668 18.7L24.5834 23.9167L22.5834 25.9167C22.0668 26.4333 22.4334 27.3333 23.1834 27.3333H29.5001C29.9668 27.3333 30.3334 26.9667 30.3334 26.5V20.1833C30.3334 19.4333 29.4334 19.0667 28.9168 19.6L26.9334 21.5833L21.7168 16.35V16.35Z" fill="#707070"/>
</g>
<defs>
<filter id="filter0_d_85_280" x="0.345947" y="0.666672" width="33.9875" height="34.6667" filterUnits="userSpaceOnUse" color-interpolation-filters="sRGB">
<feFlood flood-opacity="0" result="BackgroundImageFix"/>
<feColorMatrix in="SourceAlpha" type="matrix" values="0 0 0 0 0 0 0 0 0 0 0 0 0 0 0 0 0 0 127 0" result="hardAlpha"/>
<feOffset dy="4"/>
<feGaussianBlur stdDeviation="2"/>
<feComposite in2="hardAlpha" operator="out"/>
<feColorMatrix type="matrix" values="0 0 0 0 0 0 0 0 0 0 0 0 0 0 0 0 0 0 0.25 0"/>
<feBlend mode="normal" in2="BackgroundImageFix" result="effect1_dropShadow_85_280"/>
<feBlend mode="normal" in="SourceGraphic" in2="effect1_dropShadow_85_280" result="shape"/>
</filter>
</defs>
</svg>
